<svg id="Layer_1" data-name="Layer 1" xmlns="http://www.w3.org/2000/svg" width="160" height="33.901" viewBox="0 0 160 33.901">
  <path id="Path_43" data-name="Path 43" d="M10.683,33.21A10.836,10.836,0,0,1,3,30.482,9.3,9.3,0,0,1,0,23.45a16.714,16.714,0,0,1,1.96-7.685A30.24,30.24,0,0,1,6.918,8.734a25.744,25.744,0,0,1,5.61-4.5,30.125,30.125,0,0,1,6.686-2.92A22.4,22.4,0,0,1,25.976.242a14.179,14.179,0,0,1,4.765.73,6.993,6.993,0,0,1,3.343,2.19A6.148,6.148,0,0,1,35.313,7a8.108,8.108,0,0,1-1.037,3.842,11.181,11.181,0,0,1-2.767,3.266,14.294,14.294,0,0,1-3.842,2.152,11.527,11.527,0,0,1-4.188.768,8.146,8.146,0,0,1-4.649-1.268,3.842,3.842,0,0,1-1.883-3.189A6.417,6.417,0,0,1,20.1,7.7a1.921,1.921,0,0,1,.884-.423h.231a1.481,1.481,0,0,1-.73.73,5.571,5.571,0,0,0-2.574,4.188A3.112,3.112,0,0,0,19.213,15.3a5.61,5.61,0,0,0,3.458,1.037,9.145,9.145,0,0,0,3.842-.807,12.3,12.3,0,0,0,3.458-2.113,10.835,10.835,0,0,0,2.5-3A6.993,6.993,0,0,0,33.392,7a4.957,4.957,0,0,0-2.036-4.5,8.953,8.953,0,0,0-5.149-1.383A18.751,18.751,0,0,0,19.213,2.47a25.053,25.053,0,0,0-6.532,3.842,30.124,30.124,0,0,0-5.456,5.379A18.751,18.751,0,0,0,2.384,22.874a8.569,8.569,0,0,0,1.46,4.765,8.069,8.069,0,0,0,3.573,3,13.218,13.218,0,0,0,5.226,1,19.443,19.443,0,0,0,8.492-1.921,21.248,21.248,0,0,0,6.839-5.11c.538-.576.922-.845,1.153-.845s.307,0,.307.423a1.46,1.46,0,0,1-.538,1.037,20.249,20.249,0,0,1-3.842,3.112,31.393,31.393,0,0,1-4.611,2.536,31.2,31.2,0,0,1-5.072,1.729,19.9,19.9,0,0,1-4.688.615Z" transform="translate(0.001 0.681)" fill="#fff"/>
  <path id="Path_44" data-name="Path 44" d="M10.679,19.856A2,2,0,0,1,8.873,18.78a4.188,4.188,0,0,1-.653-2.075A14.678,14.678,0,0,1,12.062,9.02c3-3.42,5.072-5.11,6.839-5.11s2.344.845,2.344,2.5a5.764,5.764,0,0,1,0,.768,7.108,7.108,0,0,1,0,.884h.461a6.839,6.839,0,0,0,2.959-.884c0,.538-1.268,1.268-3.65,2.267.346,1-.692,2.959-3.035,5.8s-4.841,4.611-6.571,4.611Zm.807-1.383c1.345,0,3.035-1.191,5.072-3.612a10.49,10.49,0,0,0,3-5.149A6.225,6.225,0,0,1,17.711,7.6q-1.537,0-4.5,3.842a10.221,10.221,0,0,0-2.843,5.648C10.41,18.012,10.794,18.473,11.486,18.473Z" transform="translate(23.367 11.114)" fill="#fff"/>
  <path id="Path_45" data-name="Path 45" d="M14.049,19.8a2,2,0,0,1-1.806-1.076,4.188,4.188,0,0,1-.653-2.075,14.524,14.524,0,0,1,4.035-7.685c2.69-3.343,4.88-5.034,6.532-5.034s2.344.845,2.344,2.5a2.728,2.728,0,0,1,0,.768,7.108,7.108,0,0,1,0,.884l.192-.038a6.84,6.84,0,0,0,2.959-.884c0,.538-1.23,1.268-3.65,2.267.346,1-.653,2.959-3.035,5.8s-4.5,4.457-6.225,4.457Zm.807-1.383c1.345,0,3.035-1.191,5.072-3.612a10.49,10.49,0,0,0,3-5.149,7.185,7.185,0,0,1-1.844-2.113q-1.575,0-4.5,3.842a9.837,9.837,0,0,0-2.8,5.648C13.78,17.955,14.164,18.416,14.856,18.416Z" transform="translate(32.945 11.171)" fill="#fff"/>
  <path id="Path_46" data-name="Path 46" d="M25.47,25.531a4.457,4.457,0,0,1-2.69-.845,9.452,9.452,0,0,1-2.036-2.229,20.1,20.1,0,0,1-1.422-2.69,8.723,8.723,0,0,0-.692,1.076l-.807,1.537L16.4,25.224c-1.114-.423-1.652-1-1.652-1.768a35.85,35.85,0,0,1,6.033-10.989A51.411,51.411,0,0,1,28.852,2.131a1.23,1.23,0,0,1,.73,0c.961,0,1.422.269,1.422.73a3.3,3.3,0,0,1-.615,1L28.775,5.628q-.961,1.153-1.96,2.421c-.692.807-1.268,1.5-1.729,2.113a7.224,7.224,0,0,0-.845,1.114A16.215,16.215,0,0,1,31.08,9.47a3.189,3.189,0,0,1,1.767.538,4.227,4.227,0,0,1,1.268,1.345A2.613,2.613,0,0,1,34.5,12.89a6.071,6.071,0,0,1-3.842,4.3,10.6,10.6,0,0,1-4.88,1.46,6.724,6.724,0,0,1-3.343-.615.423.423,0,0,0-.423,0,.461.461,0,0,0,0,.5c.845,3.842,2.305,5.687,4.3,5.687a7.685,7.685,0,0,0,3.842-1.691,28.126,28.126,0,0,0,5.226-5A1.037,1.037,0,0,1,36,17.155a.24.24,0,0,1,.231.269,1.614,1.614,0,0,1-.307.692q-1.383,1.614-3.112,3.343a23.054,23.054,0,0,1-3.842,2.92,6.993,6.993,0,0,1-3.5,1.153Zm-2.651-8.376a12.526,12.526,0,0,0,5.418-1.691c2.613-1.306,3.842-2.651,3.842-4.111a.922.922,0,0,0-.423-.73,1.306,1.306,0,0,0-.845-.384,11.911,11.911,0,0,0-5.84,1.96,9.145,9.145,0,0,0-4.38,4.957,8.646,8.646,0,0,1,1.306,0Z" transform="translate(41.927 5.9)" fill="#fff"/>
  <path id="Path_47" data-name="Path 47" d="M38.828,33.045a10.221,10.221,0,0,1-9.913-4.957,14.025,14.025,0,0,1-6.763,3.842,1.652,1.652,0,0,1-1.5-.922A3.842,3.842,0,0,1,20,29.049a13.3,13.3,0,0,1,2.113-6.455,21.134,21.134,0,0,1,2.036-2.959,3.228,3.228,0,0,1,2.5-1.345c.884,0,1.537.768,2,2.229l1.383,4.419a24.169,24.169,0,0,0,1.652-1.921c.615-.73,1.268-1.614,2-2.651l4.111-5.533A42.728,42.728,0,0,1,47.7,4.112a4.265,4.265,0,0,1,1.768-.269,2.574,2.574,0,0,1,1.5.423,1.037,1.037,0,0,1,.576.884c0,.538-.423.884-1.345.961a40.385,40.385,0,0,0-5.379,4.649c-1.23,1.23-2.229,2.19-2.959,3a20.366,20.366,0,0,0-1.575,1.768,65.589,65.589,0,0,1-9.529,10.989,8.991,8.991,0,0,0,8.453,5.571,11.8,11.8,0,0,0,4.3-.884,16.407,16.407,0,0,0,4.035-2.382,12.911,12.911,0,0,0,3.189-3.3A6.686,6.686,0,0,0,51.892,21.9a5.149,5.149,0,0,0-1.345-3.42,7.262,7.262,0,0,0-3.266-2.152l-2.8-.384c-1.46-.192-2.19-.461-2.19-.884s0-.5.538-.73a2.305,2.305,0,0,1,1.076-.307,2.536,2.536,0,0,1,1,.192l1.422.5H48.05a14.947,14.947,0,0,0,5.379-.884,7.377,7.377,0,0,0,3.535-2.69A7.108,7.108,0,0,0,58.04,7.3a4.765,4.765,0,0,0-1.422-3.65,8.8,8.8,0,0,0-3.842-1.883,21.786,21.786,0,0,0-5.149-.692A33.659,33.659,0,0,0,37.368,2.613a20.9,20.9,0,0,0-8.415,5.072,7.877,7.877,0,0,0-2.728,4.688,3.612,3.612,0,0,0,.692,2.267l.423.461.576.461h-.307a3.5,3.5,0,0,1-2.843-3.842,8.031,8.031,0,0,1,3.228-5.994,21.363,21.363,0,0,1,5.687-3.189A30.739,30.739,0,0,1,40.48.615,40.269,40.269,0,0,1,47.55,0a27.972,27.972,0,0,1,4.8.384A16.407,16.407,0,0,1,56.5,1.576a7.954,7.954,0,0,1,2.92,2.267A5.226,5.226,0,0,1,60.5,7.224,6.455,6.455,0,0,1,58.962,11.8a9.644,9.644,0,0,1-4.073,2.651,20.326,20.326,0,0,1-6.571.922A6.878,6.878,0,0,1,51.7,16.407a6.417,6.417,0,0,1,2.267,2.382,6.686,6.686,0,0,1,.807,3.228A7.685,7.685,0,0,1,53.39,26.4a13.679,13.679,0,0,1-3.842,3.458,20.942,20.942,0,0,1-5.187,2.229,20.019,20.019,0,0,1-5.533.961Zm-16.1-2.075c1,0,2.882-1.383,5.687-4.188h0c-1.23-4.073-2.19-6.109-2.959-6.109h-.231a15.6,15.6,0,0,0-3.381,7.954,6.455,6.455,0,0,0,.231,1.537C22.075,30.74,22.382,30.97,22.728,30.97Z" transform="translate(56.85 0)" fill="#fff"/>
  <path id="Path_48" data-name="Path 48" d="M31.979,19.8a2,2,0,0,1-1.806-1.076,4.188,4.188,0,0,1-.653-2.075,14.678,14.678,0,0,1,3.842-7.685c2.728-3.343,4.918-5.034,6.571-5.034s2.344.845,2.344,2.5a5.768,5.768,0,0,1,0,.768,7.11,7.11,0,0,1,0,.884h.461A6.839,6.839,0,0,0,45.7,7.2c0,.538-1.268,1.268-3.842,2.267.346,1-.692,2.959-3.035,5.8S34.438,19.8,32.709,19.8Zm.807-1.383c1.345,0,3.035-1.191,5.072-3.612a10.49,10.49,0,0,0,3-5.149,6.225,6.225,0,0,1-1.806-2.113q-1.537,0-4.5,3.842a10.221,10.221,0,0,0-2.843,5.648c0,.922.384,1.383,1.076,1.383Z" transform="translate(83.91 11.171)" fill="#fff"/>
  <path id="Path_49" data-name="Path 49" d="M35.349,19.8a2,2,0,0,1-1.806-1.076,4.189,4.189,0,0,1-.653-2.075,14.525,14.525,0,0,1,3.842-7.685c2.69-3.343,4.88-5.034,6.532-5.034s2.344.845,2.344,2.5a2.728,2.728,0,0,1,0,.768,7.108,7.108,0,0,1,0,.884h.461A6.84,6.84,0,0,0,49.028,7.2c0,.538-1.23,1.268-3.65,2.267.346,1-.653,2.959-3.036,5.8s-4.5,4.457-6.225,4.457Zm.807-1.383c1.345,0,3.036-1.191,5.072-3.612a10.49,10.49,0,0,0,3-5.149,7.185,7.185,0,0,1-1.844-2.113q-1.537,0-4.5,3.842a9.837,9.837,0,0,0-2.8,5.648c0,.922.384,1.383,1.076,1.383Z" transform="translate(93.489 11.171)" fill="#fff"/>
  <path id="Path_50" data-name="Path 50" d="M46.77,25.531a4.38,4.38,0,0,1-2.69-.845,9.452,9.452,0,0,1-2.036-2.229,20.366,20.366,0,0,1-1.46-2.69c0,.307-.423.653-.653,1.076l-.807,1.537L37.7,25.224c-1.114-.423-1.652-1-1.652-1.768a35.85,35.85,0,0,1,6.033-10.989A48.606,48.606,0,0,1,50.152,2.131a1.23,1.23,0,0,1,.73,0c.961,0,1.422.269,1.422.73a3.3,3.3,0,0,1-.615,1L50.036,5.628l-1.96,2.421-1.729,2.113a9.03,9.03,0,0,0-.807,1.114A16.215,16.215,0,0,1,52.226,9.47a3.189,3.189,0,0,1,1.768.538,4.227,4.227,0,0,1,1.268,1.345,2.613,2.613,0,0,1,.384,1.537,6.071,6.071,0,0,1-3.842,4.3,10.605,10.605,0,0,1-4.88,1.46,6.724,6.724,0,0,1-3.343-.615.384.384,0,0,0-.423,0,.461.461,0,0,0,0,.5c.845,3.842,2.267,5.687,4.3,5.687A7.685,7.685,0,0,0,51.3,22.534a28.127,28.127,0,0,0,5.226-5,1.037,1.037,0,0,1,.769-.384.24.24,0,0,1,.231.269,1.383,1.383,0,0,1-.346.692c-.884,1.076-1.921,2.19-3.074,3.343a23.054,23.054,0,0,1-3.842,2.92A6.993,6.993,0,0,1,46.77,25.531Zm-2.651-8.376a12.526,12.526,0,0,0,5.418-1.691c2.574-1.306,3.842-2.651,3.842-4.111a.922.922,0,0,0-.423-.73,1.422,1.422,0,0,0-.884-.384,11.911,11.911,0,0,0-5.8,1.96,9.145,9.145,0,0,0-4.38,4.957,8.645,8.645,0,0,1,1.306,0Z" transform="translate(102.471 5.9)" fill="#fff"/>
</svg>
