<svg xmlns="http://www.w3.org/2000/svg" xmlns:xlink="http://www.w3.org/1999/xlink" viewBox="0 0 329.81 95.3"><defs><style>.cls-1{fill:url(#linear-gradient);}.cls-2{fill:#2b2b2b;}.cls-3{fill:#fff;}</style><linearGradient id="linear-gradient" x1="64.95" y1="85.15" x2="21.65" y2="10.15" gradientUnits="userSpaceOnUse"><stop offset="0" stop-color="#2f80ed"/><stop offset="1" stop-color="#56ccf2"/></linearGradient></defs><g id="Layer_2" data-name="Layer 2"><g id="Layer_1-2" data-name="Layer 1"><g id="iw5-logo"><path class="cls-1" d="M79.67,76.65a15.37,15.37,0,0,0,6.93-12v-34a15.37,15.37,0,0,0-6.93-12l-29.44-17a15.38,15.38,0,0,0-13.86,0l-29.44,17A15.37,15.37,0,0,0,0,30.65v34a15.37,15.37,0,0,0,6.93,12l29.44,17a15.38,15.38,0,0,0,13.86,0Z"/><path class="cls-2" d="M112.72,18.15h9.55a7.28,7.28,0,0,1,5.1,1.66,6,6,0,0,1,1.82,4.64,5.93,5.93,0,0,1-1.84,4.62,7.22,7.22,0,0,1-5.08,1.68h-4.39v7.14h-5.16Zm8.85,8.73a3.23,3.23,0,0,0,2.12-.58,2.3,2.3,0,0,0,.68-1.82,2.35,2.35,0,0,0-.68-1.84,3.17,3.17,0,0,0-2.12-.6h-3.69v4.84Z"/><path class="cls-2" d="M149.43,37.89h-5.65l-3.42-6.3a2.19,2.19,0,0,0-2-1.09h-1.57v7.39h-5.07V18.15h9.41a8.12,8.12,0,0,1,5.39,1.55,5.63,5.63,0,0,1,1.8,4.5A5.93,5.93,0,0,1,147.05,28a6.06,6.06,0,0,1-3.47,2.09,4.06,4.06,0,0,1,2.72,2.21ZM142.72,26.1a2,2,0,0,0,.75-1.74,2,2,0,0,0-.75-1.77,4.15,4.15,0,0,0-2.44-.55h-3.59v4.59h3.59A4.24,4.24,0,0,0,142.72,26.1Z"/><path class="cls-2" d="M155.46,36.89A8.56,8.56,0,0,1,152,33.37a11.38,11.38,0,0,1-1.2-5.37,11.36,11.36,0,0,1,1.2-5.36,8.47,8.47,0,0,1,3.43-3.51,11.82,11.82,0,0,1,10.5,0,8.27,8.27,0,0,1,3.42,3.51A11.48,11.48,0,0,1,170.57,28a11.38,11.38,0,0,1-1.2,5.37,8.56,8.56,0,0,1-3.43,3.52,11.61,11.61,0,0,1-10.48,0Zm8.75-4.28A7.26,7.26,0,0,0,165.47,28a7.15,7.15,0,0,0-1.27-4.59,4.69,4.69,0,0,0-7,0A7.17,7.17,0,0,0,156,28a7.23,7.23,0,0,0,1.26,4.62,4.68,4.68,0,0,0,7,0Z"/><path class="cls-2" d="M191.1,26.74v9.89a15.46,15.46,0,0,1-3.5,1.12,20.57,20.57,0,0,1-4,.39A12.09,12.09,0,0,1,178,36.92a8.49,8.49,0,0,1-3.62-3.5A11,11,0,0,1,173.12,28a10.92,10.92,0,0,1,1.26-5.34A8.61,8.61,0,0,1,178,19.13a11.35,11.35,0,0,1,5.42-1.23,13.94,13.94,0,0,1,4,.56A8.42,8.42,0,0,1,190.48,20l-1.6,3.64a10.44,10.44,0,0,0-2.63-1.29,9.07,9.07,0,0,0-2.69-.39,5,5,0,0,0-4,1.48A6.76,6.76,0,0,0,178.3,28a6.86,6.86,0,0,0,1.36,4.69,5.26,5.26,0,0,0,4.15,1.53,12.45,12.45,0,0,0,2.66-.28V30.27H183V26.74Z"/><path class="cls-2" d="M212.21,37.89h-5.66l-3.42-6.3a2.19,2.19,0,0,0-2-1.09h-1.57v7.39h-5.07V18.15h9.41a8.1,8.1,0,0,1,5.39,1.55,5.61,5.61,0,0,1,1.81,4.5A5.93,5.93,0,0,1,209.83,28a6.08,6.08,0,0,1-3.48,2.09,4,4,0,0,1,2.72,2.21ZM205.5,26.1a2,2,0,0,0,.74-1.74,2.05,2.05,0,0,0-.74-1.77,4.16,4.16,0,0,0-2.45-.55h-3.58v4.59h3.58A4.26,4.26,0,0,0,205.5,26.1Z"/><path class="cls-2" d="M229,37.89l-1.77-4.09h-8.73l-1.77,4.09h-5.18l9.22-19.74h4.08l9.24,19.74Zm-8.85-7.95h5.43l-2.71-6.33Z"/><path class="cls-2" d="M251.21,18.15h4V37.89h-4.48V27.53l-3.81,7.08h-3.31l-3.78-6.91,0,10.19h-4.48V18.15h4.06l5.93,11.23Z"/><path class="cls-2" d="M274.79,18.15h4V37.89h-4.48V27.53l-3.81,7.08h-3.3l-3.78-6.91,0,10.19h-4.48V18.15h4.06l5.94,11.23Z"/><path class="cls-2" d="M282.4,37.89V18.15h5.15V37.89Z"/><path class="cls-2" d="M303.93,18.15h4.82V37.89h-3.81l-9-11.29V37.89h-4.79V18.15h3.75l9,11.28Z"/><path class="cls-2" d="M329.81,26.74v9.89a15.46,15.46,0,0,1-3.5,1.12,20.57,20.57,0,0,1-4,.39,12,12,0,0,1-5.58-1.22,8.46,8.46,0,0,1-3.63-3.5A11,11,0,0,1,311.83,28a10.92,10.92,0,0,1,1.26-5.34,8.61,8.61,0,0,1,3.57-3.53,11.38,11.38,0,0,1,5.42-1.23,13.94,13.94,0,0,1,4,.56A8.34,8.34,0,0,1,329.19,20l-1.6,3.64A10.44,10.44,0,0,0,325,22.35a9,9,0,0,0-2.69-.39,5,5,0,0,0-4,1.48A6.76,6.76,0,0,0,317,28a6.86,6.86,0,0,0,1.36,4.69,5.27,5.27,0,0,0,4.16,1.53,12.59,12.59,0,0,0,2.66-.28V30.27h-3.48V26.74Z"/><path class="cls-2" d="M112.72,75.89V56.15h5.16V75.89Z"/><path class="cls-2" d="M134.26,56.15h4.81V75.89h-3.81l-9-11.29V75.89h-4.79V56.15h3.75l9,11.28Z"/><path class="cls-2" d="M150.07,70.79h5.18v5.1h-5.18Z"/><path class="cls-2" d="M171.07,56.15h4.82V75.89h-3.81l-9-11.29V75.89h-4.79V56.15H162l9,11.28Z"/><path class="cls-2" d="M179.47,75.89V56.15h14v4h-9v3.76h8.45v3.94h-8.45v4.09h9v4Z"/><path class="cls-2" d="M201.09,75.89V60.32h-5.91V56.15h17v4.17H206.3V75.89Z"/><path class="cls-2" d="M237.38,75.89l-1.77-4.09h-8.73l-1.77,4.09h-5.18l9.22-19.74h4.08l9.24,19.74Zm-8.85-8H234l-2.72-6.33Z"/><path class="cls-2" d="M256.44,56.15h4.82V75.89h-3.81l-9-11.29V75.89h-4.79V56.15h3.75l9,11.28Z"/><path class="cls-2" d="M264.84,56.15h8a12.59,12.59,0,0,1,5.64,1.17,8.32,8.32,0,0,1,3.63,3.41A10.51,10.51,0,0,1,283.41,66a10.69,10.69,0,0,1-1.25,5.31,8.2,8.2,0,0,1-3.61,3.4,12.55,12.55,0,0,1-5.67,1.18h-8Zm7.68,15.59A5,5,0,0,0,278.28,66a5.8,5.8,0,0,0-1.42-4.29,5.92,5.92,0,0,0-4.34-1.42H270V71.74Z"/><path class="cls-2" d="M298.71,74.88a8.52,8.52,0,0,1-3.5-3.56,12.17,12.17,0,0,1,0-10.62,8.59,8.59,0,0,1,3.5-3.54,10.92,10.92,0,0,1,5.36-1.26,12,12,0,0,1,3.74.58,8.76,8.76,0,0,1,2.95,1.57l-1.59,3.64a8.61,8.61,0,0,0-5-1.71,4.55,4.55,0,0,0-3.68,1.52,6.82,6.82,0,0,0-1.27,4.5,6.93,6.93,0,0,0,1.27,4.53,4.55,4.55,0,0,0,3.68,1.52,8.61,8.61,0,0,0,5-1.71L310.76,74a8.42,8.42,0,0,1-2.95,1.57,12,12,0,0,1-3.74.59A10.92,10.92,0,0,1,298.71,74.88Z"/><path class="cls-2" d="M327,63.37H325l-1,5.07h2.29v3h-2.88l-.9,4.45h-3.19l.9-4.45h-2.47l-.89,4.45h-3.22l.89-4.45h-1.34v-3h1.93l1-5.07h-2.33v-3h2.94l.84-4.23h3.2L320,60.38h2.46l.84-4.23h3.22l-.84,4.23H327Zm-6.11,5.07,1-5.07h-2.46l-1,5.07Z"/><path class="cls-3" d="M11,59.74v-24h6.26v24Z"/><path class="cls-3" d="M51.17,35.77h5.92l-8.57,24h-5L38.49,45.36,33.35,59.74h-5l-8.54-24h6.36l5,15.2,5.38-15.2h4.31L46,51.24Z"/><path class="cls-3" d="M73.3,45A6.82,6.82,0,0,1,76,47.76a8.23,8.23,0,0,1,1,4,8,8,0,0,1-1.19,4.35A7.73,7.73,0,0,1,72.42,59a12.06,12.06,0,0,1-5.1,1,16.05,16.05,0,0,1-4.64-.69A10.29,10.29,0,0,1,59,57.46L61,53a11.45,11.45,0,0,0,6.43,2.15,4.34,4.34,0,0,0,2.82-.77,3,3,0,0,0,.92-2.4,3,3,0,0,0-1-2.39,4,4,0,0,0-2.7-.84,7.22,7.22,0,0,0-2.06.33,8.54,8.54,0,0,0-2,.86H59.94V35.77H75.75V40.5H66v4.18A8.87,8.87,0,0,1,73.3,45Z"/></g></g></g></svg>