<svg xmlns="http://www.w3.org/2000/svg" xmlns:xlink="http://www.w3.org/1999/xlink" viewBox="0 0 350.56 95.3"><defs><style>.cls-1{fill:url(#linear-gradient);}.cls-2{fill:#2b2b2b;}.cls-3{fill:#fff;}</style><linearGradient id="linear-gradient" x1="64.95" y1="85.15" x2="21.65" y2="10.15" gradientUnits="userSpaceOnUse"><stop offset="0" stop-color="#2f80ed"/><stop offset="1" stop-color="#56ccf2"/></linearGradient></defs><g id="Layer_2" data-name="Layer 2"><g id="Layer_1-2" data-name="Layer 1"><g id="iw5-logo"><path class="cls-1" d="M79.67,76.65a15.37,15.37,0,0,0,6.93-12v-34a15.37,15.37,0,0,0-6.93-12l-29.44-17a15.38,15.38,0,0,0-13.86,0l-29.44,17A15.37,15.37,0,0,0,0,30.65v34a15.37,15.37,0,0,0,6.93,12l29.44,17a15.38,15.38,0,0,0,13.86,0Z"/><path class="cls-2" d="M113.07,18.6h9.55a7.26,7.26,0,0,1,5.09,1.67,5.93,5.93,0,0,1,1.82,4.63,6,6,0,0,1-1.83,4.62,7.24,7.24,0,0,1-5.08,1.68h-4.4v7.14h-5.15Zm8.85,8.74a3.18,3.18,0,0,0,2.11-.59,2.26,2.26,0,0,0,.69-1.82A2.3,2.3,0,0,0,124,23.1a3.13,3.13,0,0,0-2.11-.6h-3.7v4.84Z"/><path class="cls-2" d="M149.78,38.34h-5.66L140.71,32A2.2,2.2,0,0,0,138.66,31h-1.57v7.39H132V18.6h9.4a8,8,0,0,1,5.39,1.56,5.57,5.57,0,0,1,1.81,4.49,5.91,5.91,0,0,1-1.23,3.79,6,6,0,0,1-3.47,2.09,4,4,0,0,1,2.71,2.21Zm-6.71-11.79a2,2,0,0,0,.74-1.73,2,2,0,0,0-.74-1.78,4.25,4.25,0,0,0-2.45-.54H137v4.59h3.58A4.25,4.25,0,0,0,143.07,26.55Z"/><path class="cls-2" d="M155.81,37.35a8.52,8.52,0,0,1-3.43-3.53,11.36,11.36,0,0,1-1.2-5.36,11.36,11.36,0,0,1,1.2-5.36,8.44,8.44,0,0,1,3.43-3.52,11.82,11.82,0,0,1,10.5,0,8.35,8.35,0,0,1,3.42,3.52,11.48,11.48,0,0,1,1.19,5.36,11.25,11.25,0,0,1-1.21,5.36,8.46,8.46,0,0,1-3.43,3.53,10.5,10.5,0,0,1-5.22,1.24A10.61,10.61,0,0,1,155.81,37.35Zm8.75-4.29a7.24,7.24,0,0,0,1.26-4.6,7.11,7.11,0,0,0-1.27-4.59,4.7,4.7,0,0,0-7,0,7.2,7.2,0,0,0-1.26,4.61,7.27,7.27,0,0,0,1.26,4.62,4.26,4.26,0,0,0,3.5,1.57A4.21,4.21,0,0,0,164.56,33.06Z"/><path class="cls-2" d="M191.44,27.2v9.88a14.67,14.67,0,0,1-3.5,1.12,20.4,20.4,0,0,1-4,.39,12.09,12.09,0,0,1-5.59-1.21,8.5,8.5,0,0,1-3.62-3.5,11,11,0,0,1-1.26-5.42,10.93,10.93,0,0,1,1.26-5.35,8.61,8.61,0,0,1,3.57-3.53,11.34,11.34,0,0,1,5.41-1.23,14.31,14.31,0,0,1,4,.56,8.58,8.58,0,0,1,3.07,1.54l-1.6,3.64a10.44,10.44,0,0,0-2.63-1.29,9.07,9.07,0,0,0-2.69-.39,5,5,0,0,0-4,1.48,6.79,6.79,0,0,0-1.3,4.57A6.93,6.93,0,0,0,180,33.15a5.29,5.29,0,0,0,4.16,1.52,12.52,12.52,0,0,0,2.66-.28V30.73h-3.47V27.2Z"/><path class="cls-2" d="M212.55,38.34H206.9L203.48,32a2.19,2.19,0,0,0-2-1.09h-1.57v7.39H194.8V18.6h9.41a8,8,0,0,1,5.39,1.56,5.6,5.6,0,0,1,1.81,4.49,5.86,5.86,0,0,1-1.24,3.79,6,6,0,0,1-3.47,2.09,4,4,0,0,1,2.72,2.21Zm-6.7-11.79a2,2,0,0,0,.74-1.73,2.07,2.07,0,0,0-.74-1.78,4.27,4.27,0,0,0-2.45-.54h-3.59v4.59h3.59A4.27,4.27,0,0,0,205.85,26.55Z"/><path class="cls-2" d="M229.33,38.34l-1.77-4.09h-8.73l-1.77,4.09h-5.18l9.21-19.74h4.09l9.24,19.74Zm-8.85-8h5.43l-2.72-6.33Z"/><path class="cls-2" d="M251.56,18.6h4V38.34h-4.48V28l-3.8,7.09h-3.31l-3.78-6.92,0,10.19h-4.48V18.6h4.06l5.94,11.23Z"/><path class="cls-2" d="M263.3,37.35a8.58,8.58,0,0,1-3.43-3.53,11.36,11.36,0,0,1-1.2-5.36,11.36,11.36,0,0,1,1.2-5.36,8.5,8.5,0,0,1,3.43-3.52,11.82,11.82,0,0,1,10.5,0,8.3,8.3,0,0,1,3.42,3.52,11.48,11.48,0,0,1,1.19,5.36,11.36,11.36,0,0,1-1.2,5.36,8.58,8.58,0,0,1-3.43,3.53,11.69,11.69,0,0,1-10.48,0Zm8.75-4.29a7.24,7.24,0,0,0,1.26-4.6A7.11,7.11,0,0,0,272,23.87a4.7,4.7,0,0,0-7,0,7.2,7.2,0,0,0-1.26,4.61,7.27,7.27,0,0,0,1.26,4.62,4.26,4.26,0,0,0,3.5,1.57A4.21,4.21,0,0,0,272.05,33.06Z"/><path class="cls-2" d="M295.29,18.6h5.21l-9,19.74h-4.08l-9-19.74h5.35l5.73,13.33Z"/><path class="cls-2" d="M314.7,38.34l-1.77-4.09H304.2l-1.77,4.09h-5.18l9.22-19.74h4.08l9.24,19.74Zm-8.85-8h5.43l-2.72-6.33ZM310,16.92h-3l2.91-4.39h4.45Z"/><path class="cls-2" d="M333.76,18.6h4.82V38.34h-3.81l-9-11.28V38.34H321V18.6h3.75l9,11.29Z"/><path class="cls-2" d="M342.16,38.34V18.6h5.16V38.34Zm4.06-21.42h-3l2.91-4.39h4.45Z"/><path class="cls-2" d="M127.49,56.6h5.21l-9,19.74h-4.09l-9-19.74H116l5.74,13.33Z"/><path class="cls-2" d="M141.29,71.25h5.18v5.09h-5.18Z"/><path class="cls-2" d="M162.29,56.6h4.82V76.34H163.3l-9-11.28V76.34H149.5V56.6h3.75l9,11.29Z"/><path class="cls-2" d="M170.69,76.34V56.6h14v4h-9v3.75h8.45v4h-8.45v4.09h9v4Z"/><path class="cls-2" d="M192.31,76.34V60.77H186.4V56.6h17v4.17h-5.91V76.34Z"/><path class="cls-2" d="M228.6,76.34l-1.77-4.09H218.1l-1.77,4.09h-5.18l9.22-19.74h4.08l9.24,19.74Zm-8.85-8h5.43l-2.72-6.33Z"/><path class="cls-2" d="M247.09,75.34a8.58,8.58,0,0,1-3.5-3.56,12.19,12.19,0,0,1,0-10.63,8.59,8.59,0,0,1,3.5-3.54,10.92,10.92,0,0,1,5.36-1.26,12,12,0,0,1,3.74.59,8.42,8.42,0,0,1,2.95,1.57l-1.59,3.64a8.61,8.61,0,0,0-5-1.71A4.54,4.54,0,0,0,248.88,62a6.85,6.85,0,0,0-1.27,4.51A6.9,6.9,0,0,0,248.88,71a4.52,4.52,0,0,0,3.68,1.53,8.61,8.61,0,0,0,5-1.71l1.59,3.64A8.59,8.59,0,0,1,256.19,76a12,12,0,0,1-3.74.58A11,11,0,0,1,247.09,75.34Z"/><path class="cls-2" d="M275.33,63.83h-1.91l-1,5.06h2.29v3h-2.88l-.9,4.45h-3.19l.9-4.45h-2.47l-.89,4.45h-3.22l.89-4.45h-1.34v-3h1.93l1-5.06h-2.33v-3h2.94L266,56.6h3.2l-.84,4.23h2.46l.84-4.23h3.22L274,60.83h1.29Zm-6.11,5.06,1-5.06h-2.46l-1,5.06Z"/><path class="cls-3" d="M11,59.74v-24h6.26v24Z"/><path class="cls-3" d="M51.17,35.77h5.92l-8.57,24h-5L38.49,45.36,33.35,59.74h-5l-8.54-24h6.36l5,15.2,5.38-15.2h4.31L46,51.24Z"/><path class="cls-3" d="M73.3,45A6.82,6.82,0,0,1,76,47.76a8.23,8.23,0,0,1,1,4,8,8,0,0,1-1.19,4.35A7.73,7.73,0,0,1,72.42,59a12.06,12.06,0,0,1-5.1,1,16.05,16.05,0,0,1-4.64-.69A10.29,10.29,0,0,1,59,57.46L61,53a11.45,11.45,0,0,0,6.43,2.15,4.34,4.34,0,0,0,2.82-.77,3,3,0,0,0,.92-2.4,3,3,0,0,0-1-2.39,4,4,0,0,0-2.7-.84,7.22,7.22,0,0,0-2.06.33,8.54,8.54,0,0,0-2,.86H59.94V35.77H75.75V40.5H66v4.18A8.87,8.87,0,0,1,73.3,45Z"/></g></g></g></svg>